<svg width="267" height="32" fill="none" xmlns="http://www.w3.org/2000/svg"><path d="M38.474 25.672v-10.22h-1.937V12.53h1.937v-1.845a6.644 6.644 0 011.353-4.4 4.486 4.486 0 013.63-1.617 8.509 8.509 0 013.673.88l-.768 2.867a4.819 4.819 0 00-1.012-.383 4.19 4.19 0 00-1.067-.156c-1.329 0-1.993.89-1.993 2.668v1.987h3.638v2.924H42.29v10.219l-3.816-.001zM60.085 14.09c-1.07 0-2.129.227-3.104.667a3.904 3.904 0 00-1.964 1.914v8.999h-3.816V10.797h3.502v3.179a6.914 6.914 0 012.008-2.47 4.25 4.25 0 012.605-.936c.21 0 .366 0 .47.014.1.01.2.023.299.042v3.463z" fill="#fff"/><path fill-rule="evenodd" clip-rule="evenodd" d="M71.585 25.954a8.215 8.215 0 01-3.27-.625 7.334 7.334 0 01-2.465-1.688 7.457 7.457 0 01-1.551-2.453 8.257 8.257 0 010-5.87 7.466 7.466 0 011.551-2.457 7.372 7.372 0 012.465-1.688 8.213 8.213 0 013.273-.624 8.117 8.117 0 013.261.624 7.339 7.339 0 014 4.145c.721 1.89.721 3.98 0 5.87a7.57 7.57 0 01-1.535 2.455 7.175 7.175 0 01-2.457 1.686 8.214 8.214 0 01-3.272.625zm-3.595-5.89a5.158 5.158 0 01-.3-1.802v-.001a5.193 5.193 0 01.3-1.787 4.362 4.362 0 01.825-1.42c.345-.392.766-.71 1.238-.937a3.515 3.515 0 011.536-.34 3.656 3.656 0 011.536.327c.473.217.895.531 1.238.922.363.416.644.898.826 1.42.203.573.305 1.177.3 1.786a5.272 5.272 0 01-.3 1.816 4.351 4.351 0 01-.826 1.42 3.72 3.72 0 01-1.238.921 3.785 3.785 0 01-3.072 0 3.72 3.72 0 01-1.238-.921 4.399 4.399 0 01-.825-1.404z" fill="#fff"/><path d="M98.612 25.671h-3.816v-8.345a4.337 4.337 0 00-.627-2.611 2.058 2.058 0 00-1.736-.823c-.4.003-.795.08-1.167.227a4.26 4.26 0 00-1.125.638c-.36.283-.68.612-.954.979a3.867 3.867 0 00-.627 1.25v8.685h-3.815V10.797h3.446v2.754a5.625 5.625 0 012.391-2.214 7.69 7.69 0 013.53-.795 4.513 4.513 0 012.28.51 3.706 3.706 0 011.365 1.332c.334.579.561 1.213.67 1.873.123.703.185 1.415.185 2.128v9.286zM113.46 24.904c-.617.265-1.249.492-1.894.68a8.018 8.018 0 01-2.348.342 5.48 5.48 0 01-1.496-.199 3.29 3.29 0 01-1.223-.638 3.077 3.077 0 01-.841-1.136 4.063 4.063 0 01-.314-1.689v-8.55h-1.937v-2.917h1.937V5.971h3.816v4.826h3.16v2.924h-3.16v7.266c-.045.42.114.837.427 1.121.295.22.656.335 1.025.326.398 0 .793-.067 1.168-.198.378-.128.684-.246.91-.34l.77 3.008z" fill="#fff"/><path fill-rule="evenodd" clip-rule="evenodd" d="M121.915 25.344a8.327 8.327 0 003.248.61v.001a8.19 8.19 0 004.312-1.092 6.636 6.636 0 002.633-2.797l-3.273-.907a2.94 2.94 0 01-1.381 1.46 4.414 4.414 0 01-2.151.555 4.012 4.012 0 01-1.423-.256 3.839 3.839 0 01-2.107-1.901 4.403 4.403 0 01-.428-1.56h11.531a2.86 2.86 0 00.072-.569c.014-.227.014-.463.014-.71a8.085 8.085 0 00-.527-2.893 7.135 7.135 0 00-1.536-2.443 7.51 7.51 0 00-2.449-1.674 8.118 8.118 0 00-3.261-.624 8.317 8.317 0 00-3.288.624 7.497 7.497 0 00-2.492 1.688 7.316 7.316 0 00-1.565 2.47 8.255 8.255 0 00-.541 2.995 7.785 7.785 0 00.555 2.923c.359.91.896 1.74 1.58 2.441a7.47 7.47 0 002.477 1.66zm5.879-11.038c.745.7 1.19 1.66 1.239 2.68l-7.744.002c.03-.52.16-1.032.384-1.504.206-.436.491-.83.84-1.164a3.753 3.753 0 012.62-1.022c.985-.022 1.94.34 2.661 1.008zM141.265 25.16a6.167 6.167 0 002.719.595 6.168 6.168 0 002.877-.695 5.045 5.045 0 002.079-1.973v1.867a4.568 4.568 0 01-.358 1.875 3.56 3.56 0 01-.969 1.304 3.918 3.918 0 01-1.424.753 5.888 5.888 0 01-1.692.24 6.569 6.569 0 01-2.778-.595 5.919 5.919 0 01-2.148-1.646l-2.079 2.015a8.328 8.328 0 002.863 2.285 9.451 9.451 0 004.142.808 10.827 10.827 0 003.301-.481 7.913 7.913 0 002.622-1.391 6.318 6.318 0 001.727-2.208 6.886 6.886 0 00.61-2.951V10.797h-3.328v2.607a6.355 6.355 0 00-2.145-2.082 5.9 5.9 0 00-3.073-.78 6.436 6.436 0 00-4.983 2.242 7.863 7.863 0 00-1.425 2.44 8.692 8.692 0 00-.512 3.009 8.55 8.55 0 00.487 2.895c.302.877.766 1.69 1.366 2.4a6.345 6.345 0 002.121 1.632zm5.226-2.64c-.384.133-.788.2-1.195.198v-.001a3.932 3.932 0 01-1.639-.34 4.044 4.044 0 01-1.309-.937 4.348 4.348 0 01-.868-1.391 4.555 4.555 0 01-.315-1.704 5.381 5.381 0 01.273-1.702 4.59 4.59 0 01.783-1.463 3.92 3.92 0 011.237-1.02 3.399 3.399 0 011.61-.383 3.79 3.79 0 012.277.795 4.678 4.678 0 011.596 2.1v3.548c-.139.35-.332.675-.572.966-.244.3-.526.567-.84.795-.317.229-.667.41-1.038.538zM162.135 25.159a6.168 6.168 0 002.718.596 6.16 6.16 0 002.873-.695 5.045 5.045 0 002.079-1.973v1.873a4.551 4.551 0 01-.357 1.874 3.55 3.55 0 01-.969 1.305 3.918 3.918 0 01-1.424.753 5.898 5.898 0 01-1.693.24 6.57 6.57 0 01-2.777-.595 5.922 5.922 0 01-2.149-1.646l-2.075 2.008a8.34 8.34 0 002.862 2.286 9.46 9.46 0 004.143.808 10.834 10.834 0 003.302-.482 7.89 7.89 0 002.621-1.39 6.291 6.291 0 001.72-2.208c.42-.927.629-1.935.612-2.952V10.797h-3.328v2.607a6.355 6.355 0 00-2.141-2.083 5.892 5.892 0 00-3.072-.78 6.435 6.435 0 00-4.982 2.242 7.838 7.838 0 00-1.425 2.44 8.692 8.692 0 00-.512 3.01 8.55 8.55 0 00.486 2.895c.303.876.766 1.69 1.365 2.399a6.371 6.371 0 002.123 1.632zm5.219-2.64c-.384.134-.789.2-1.196.2v-.002a3.93 3.93 0 01-1.638-.34 4.046 4.046 0 01-1.31-.938 4.346 4.346 0 01-.867-1.39 4.555 4.555 0 01-.315-1.704 5.439 5.439 0 01.271-1.702c.171-.53.437-1.026.784-1.463a3.937 3.937 0 011.238-1.02 3.393 3.393 0 011.609-.383 3.79 3.79 0 012.278.795 4.666 4.666 0 011.595 2.1v3.547a3.58 3.58 0 01-.571.966c-.244.3-.526.568-.839.796a4.04 4.04 0 01-1.039.538zM7.39 1.367c3.276-2.333 6.553-1.617 9.584 1.668v.005c3.032 3.289 6.39 9.706 5.239 16.51a12.346 12.346 0 01-1.473 4.177 10.44 10.44 0 01-6.6 4.83 11.98 11.98 0 01-9.056-1.29 9.823 9.823 0 01-.994-.719 11.98 11.98 0 01-4.04-8.35 18.108 18.108 0 01.392-5.33 21.81 21.81 0 011.604-4.652A17.448 17.448 0 017.39 1.367zM4.822 10.61c.375-1.334 1.699-5.218 4.824-7.172a.51.51 0 10-.538-.87 11.817 11.817 0 00-4.205 4.959 16.978 16.978 0 00-1.07 2.807.509.509 0 00.39.638.512.512 0 00.6-.362z" fill="#fff"/><path d="M13.696 30.988a11.188 11.188 0 0011.726-1.51c5.55-4.623 7.088-14.064 7.088-14.064s.98-4.891-.825-7.714C29.88 4.877 25.422 4.9 21.342 6.296a28.793 28.793 0 012.944 11.89C24.235 24.41 19.82 29.747 13.7 30.984" fill="#fff"/><path stroke="#55555F" d="M190.121 4v24"/><path d="M207.041 26V9.775h4.851c1.078 0 2.057.194 2.937.583.88.381 1.635.928 2.266 1.639s1.118 1.566 1.463 2.563c.345.99.517 2.094.517 3.31 0 1.218-.172 2.326-.517 3.323-.345.99-.832 1.844-1.463 2.563a6.442 6.442 0 01-2.266 1.66c-.88.39-1.859.584-2.937.584h-4.851zm2.904-.87l-1.309-1.44h2.882c.88 0 1.665-.235 2.354-.704.697-.477 1.247-1.148 1.65-2.013.403-.873.605-1.907.605-3.102 0-1.203-.202-2.237-.605-3.102-.403-.865-.953-1.53-1.65-1.991-.689-.462-1.474-.693-2.354-.693h-2.882l1.309-1.441V25.13zM229.035 26.242a6.872 6.872 0 01-2.75-.55 6.447 6.447 0 01-2.244-1.617c-.638-.719-1.137-1.595-1.496-2.63-.352-1.04-.528-2.232-.528-3.574 0-1.342.176-2.53.528-3.564.359-1.034.858-1.903 1.496-2.607a6.226 6.226 0 012.233-1.606 6.951 6.951 0 012.761-.55c.997 0 1.921.183 2.772.55.858.36 1.606.895 2.244 1.606.638.704 1.133 1.573 1.485 2.607.359 1.034.539 2.222.539 3.564s-.18 2.534-.539 3.575c-.359 1.034-.862 1.91-1.507 2.629a6.344 6.344 0 01-2.233 1.617 6.9 6.9 0 01-2.761.55zm0-2.387c.763 0 1.452-.205 2.068-.616.616-.418 1.104-1.067 1.463-1.947.367-.88.55-2.02.55-3.421 0-1.408-.183-2.545-.55-3.41-.367-.873-.858-1.51-1.474-1.914a3.676 3.676 0 00-2.057-.605 3.69 3.69 0 00-2.046.605c-.616.403-1.111 1.041-1.485 1.914-.367.865-.55 2.002-.55 3.41 0 1.408.183 2.552.55 3.432.374.88.869 1.525 1.485 1.936.623.41 1.305.616 2.046.616zM252.278 20.159c0 .69-.128 1.39-.385 2.1a6.247 6.247 0 01-1.177 1.98c-.521.602-1.181 1.086-1.98 1.453-.799.367-1.738.55-2.816.55-1.459 0-2.706-.356-3.74-1.067-1.027-.719-1.811-1.705-2.354-2.96-.535-1.253-.803-2.694-.803-4.322 0-1.635.268-3.08.803-4.334.543-1.254 1.327-2.237 2.354-2.948 1.034-.711 2.281-1.067 3.74-1.067 1.21 0 2.244.23 3.102.693.858.462 1.544 1.056 2.057 1.782.513.726.858 1.485 1.034 2.277.11.462.165.902.165 1.32h-2.915c0-.213-.015-.433-.044-.66a3.768 3.768 0 00-.561-1.518 3.074 3.074 0 00-1.144-1.09c-.477-.27-1.041-.406-1.694-.406-.777 0-1.463.216-2.057.649-.587.433-1.049 1.089-1.386 1.969-.337.88-.506 1.99-.506 3.333 0 1.327.169 2.435.506 3.322.337.887.799 1.55 1.386 1.99.594.44 1.28.66 2.057.66.557 0 1.049-.102 1.474-.307.425-.205.785-.48 1.078-.825.293-.352.513-.748.66-1.188.154-.44.231-.902.231-1.386h2.915zM260.965 26.242c-1.152 0-2.156-.183-3.014-.55-.858-.367-1.526-.917-2.002-1.65-.477-.74-.715-1.657-.715-2.75v-.33-.341h2.893v.616c0 .88.238 1.54.715 1.98.484.433 1.195.649 2.134.649.946 0 1.668-.158 2.167-.473.506-.315.759-.821.759-1.518 0-.506-.173-.935-.517-1.287-.338-.36-.803-.675-1.397-.946a17.131 17.131 0 00-2.024-.76 10.574 10.574 0 01-2.321-1.022 5.094 5.094 0 01-1.672-1.584c-.418-.638-.627-1.423-.627-2.354s.238-1.723.715-2.376c.484-.653 1.144-1.148 1.98-1.485.843-.345 1.8-.517 2.871-.517 1.122 0 2.108.176 2.959.528.858.352 1.529.876 2.013 1.573s.726 1.566.726 2.607v.715h-2.904v-.286-.297c0-.836-.228-1.452-.682-1.848-.455-.403-1.144-.605-2.068-.605-.902 0-1.595.158-2.079.473-.484.315-.726.818-.726 1.507 0 .513.165.942.495 1.287.33.345.781.645 1.353.902a30.2 30.2 0 001.969.759c.975.323 1.818.69 2.53 1.1.711.403 1.261.91 1.65 1.518.388.601.583 1.368.583 2.299 0 .953-.242 1.764-.726 2.43-.477.66-1.148 1.167-2.013 1.519-.858.345-1.867.517-3.025.517z" fill="#fff"/></svg>