<svg width="40" height="40" fill="none" xmlns="http://www.w3.org/2000/svg"><rect width="40" height="40" rx="8" fill="#1E1F2B"/><path fill-rule="evenodd" clip-rule="evenodd" d="M13.557 10.29c2.261-1.609 4.522-1.115 6.614 1.152v.003c2.091 2.269 4.409 6.697 3.614 11.391a8.517 8.517 0 01-1.016 2.882 7.202 7.202 0 01-4.554 3.333 8.265 8.265 0 01-6.248-.89 6.775 6.775 0 01-.686-.496 8.266 8.266 0 01-2.787-5.762 12.495 12.495 0 01.27-3.678 15.051 15.051 0 011.107-3.209 12.04 12.04 0 013.686-4.725zm-1.77 6.378c.258-.92 1.172-3.6 3.327-4.948a.352.352 0 10-.37-.6 8.153 8.153 0 00-2.902 3.421 11.72 11.72 0 00-.738 1.937.351.351 0 00.27.44.353.353 0 00.412-.25z" fill="#fff"/><path d="M17.91 30.728A7.72 7.72 0 0026 29.685c3.83-3.189 4.89-9.703 4.89-9.703s.677-3.375-.568-5.323c-1.245-1.947-4.322-1.93-7.136-.968a19.868 19.868 0 012.031 8.203 9.095 9.095 0 01-7.305 8.831" fill="#fff" fill-opacity=".8"/></svg>